<svg width="869" height="36" viewBox="0 0 869 36" fill="none" xmlns="http://www.w3.org/2000/svg">
<path d="M14.156 28.288C12.236 28.288 10.448 27.964 8.792 27.316C7.16 26.668 5.744 25.768 4.544 24.616C3.344 23.44 2.408 22.072 1.736 20.512C1.064 18.952 0.728 17.248 0.728 15.4C0.728 13.552 1.064 11.848 1.736 10.288C2.408 8.728 3.344 7.372 4.544 6.22C5.744 5.044 7.16 4.132 8.792 3.484C10.424 2.836 12.212 2.512 14.156 2.512C16.076 2.512 17.84 2.836 19.448 3.484C21.08 4.108 22.496 5.008 23.696 6.184C24.92 7.336 25.856 8.692 26.504 10.252C27.176 11.812 27.512 13.528 27.512 15.4C27.512 17.272 27.176 18.988 26.504 20.548C25.856 22.108 24.92 23.476 23.696 24.652C22.496 25.804 21.08 26.704 19.448 27.352C17.84 27.976 16.076 28.288 14.156 28.288ZM14.156 25.084C15.548 25.084 16.832 24.844 18.008 24.364C19.208 23.884 20.24 23.212 21.104 22.348C21.992 21.46 22.676 20.428 23.156 19.252C23.66 18.076 23.912 16.792 23.912 15.4C23.912 14.008 23.66 12.724 23.156 11.548C22.676 10.372 21.992 9.352 21.104 8.488C20.24 7.6 19.208 6.916 18.008 6.436C16.832 5.956 15.548 5.716 14.156 5.716C12.74 5.716 11.432 5.956 10.232 6.436C9.056 6.916 8.024 7.6 7.136 8.488C6.248 9.352 5.552 10.372 5.048 11.548C4.568 12.724 4.328 14.008 4.328 15.4C4.328 16.792 4.568 18.076 5.048 19.252C5.552 20.428 6.248 21.46 7.136 22.348C8.024 23.212 9.056 23.884 10.232 24.364C11.432 24.844 12.74 25.084 14.156 25.084ZM40.5384 28.216C38.9064 28.216 37.4664 27.916 36.2184 27.316C34.9944 26.716 34.0344 25.804 33.3384 24.58C32.6664 23.332 32.3304 21.772 32.3304 19.9V8.92H35.7864V19.504C35.7864 21.376 36.2304 22.78 37.1184 23.716C38.0304 24.652 39.3024 25.12 40.9344 25.12C42.1344 25.12 43.1784 24.88 44.0664 24.4C44.9544 23.896 45.6384 23.176 46.1184 22.24C46.5984 21.28 46.8384 20.128 46.8384 18.784V8.92H50.2944V28H47.0184V22.852L47.5584 24.22C46.9344 25.492 45.9984 26.476 44.7504 27.172C43.5024 27.868 42.0984 28.216 40.5384 28.216ZM66.9897 28.216C65.4057 28.216 63.9537 27.856 62.6337 27.136C61.3377 26.392 60.2937 25.3 59.5017 23.86C58.7337 22.42 58.3497 20.62 58.3497 18.46C58.3497 16.3 58.7217 14.5 59.4657 13.06C60.2337 11.62 61.2657 10.54 62.5617 9.82C63.8817 9.1 65.3577 8.74 66.9897 8.74C68.8617 8.74 70.5177 9.148 71.9577 9.964C73.3977 10.78 74.5377 11.92 75.3777 13.384C76.2177 14.824 76.6377 16.516 76.6377 18.46C76.6377 20.404 76.2177 22.108 75.3777 23.572C74.5377 25.036 73.3977 26.176 71.9577 26.992C70.5177 27.808 68.8617 28.216 66.9897 28.216ZM56.8737 34.984V8.92H60.1857V14.068L59.9697 18.496L60.3297 22.924V34.984H56.8737ZM66.7017 25.192C67.9257 25.192 69.0177 24.916 69.9777 24.364C70.9617 23.812 71.7297 23.032 72.2817 22.024C72.8577 20.992 73.1457 19.804 73.1457 18.46C73.1457 17.092 72.8577 15.916 72.2817 14.932C71.7297 13.924 70.9617 13.144 69.9777 12.592C69.0177 12.04 67.9257 11.764 66.7017 11.764C65.5017 11.764 64.4097 12.04 63.4257 12.592C62.4657 13.144 61.6977 13.924 61.1217 14.932C60.5697 15.916 60.2937 17.092 60.2937 18.46C60.2937 19.804 60.5697 20.992 61.1217 22.024C61.6977 23.032 62.4657 23.812 63.4257 24.364C64.4097 24.916 65.5017 25.192 66.7017 25.192ZM86.8847 28.216C85.3007 28.216 83.7887 28 82.3487 27.568C80.9327 27.136 79.8167 26.608 79.0007 25.984L80.4407 23.248C81.2567 23.8 82.2647 24.268 83.4647 24.652C84.6647 25.036 85.8887 25.228 87.1367 25.228C88.7447 25.228 89.8967 25 90.5927 24.544C91.3127 24.088 91.6727 23.452 91.6727 22.636C91.6727 22.036 91.4567 21.568 91.0247 21.232C90.5927 20.896 90.0167 20.644 89.2967 20.476C88.6007 20.308 87.8207 20.164 86.9567 20.044C86.0927 19.9 85.2287 19.732 84.3647 19.54C83.5007 19.324 82.7087 19.036 81.9887 18.676C81.2687 18.292 80.6927 17.776 80.2607 17.128C79.8287 16.456 79.6127 15.568 79.6127 14.464C79.6127 13.312 79.9367 12.304 80.5847 11.44C81.2327 10.576 82.1447 9.916 83.3207 9.46C84.5207 8.98 85.9367 8.74 87.5687 8.74C88.8167 8.74 90.0767 8.896 91.3487 9.208C92.6447 9.496 93.7007 9.916 94.5167 10.468L93.0407 13.204C92.1767 12.628 91.2767 12.232 90.3407 12.016C89.4047 11.8 88.4687 11.692 87.5327 11.692C86.0207 11.692 84.8927 11.944 84.1487 12.448C83.4047 12.928 83.0327 13.552 83.0327 14.32C83.0327 14.968 83.2487 15.472 83.6807 15.832C84.1367 16.168 84.7127 16.432 85.4087 16.624C86.1287 16.816 86.9207 16.984 87.7847 17.128C88.6487 17.248 89.5127 17.416 90.3767 17.632C91.2407 17.824 92.0207 18.1 92.7167 18.46C93.4367 18.82 94.0127 19.324 94.4447 19.972C94.9007 20.62 95.1287 21.484 95.1287 22.564C95.1287 23.716 94.7927 24.712 94.1207 25.552C93.4487 26.392 92.5007 27.052 91.2767 27.532C90.0527 27.988 88.5887 28.216 86.8847 28.216ZM99.6279 20.044L98.9799 2.8H103.048L102.364 20.044H99.6279ZM101.032 28.216C100.36 28.216 99.7959 27.988 99.3399 27.532C98.8839 27.076 98.6559 26.536 98.6559 25.912C98.6559 25.24 98.8839 24.688 99.3399 24.256C99.7959 23.824 100.36 23.608 101.032 23.608C101.704 23.608 102.256 23.824 102.688 24.256C103.12 24.688 103.336 25.24 103.336 25.912C103.336 26.536 103.12 27.076 102.688 27.532C102.256 27.988 101.704 28.216 101.032 28.216ZM119.253 28V2.8H122.853V24.868H136.497V28H119.253ZM151.968 28V23.968L151.788 23.212V16.336C151.788 14.872 151.356 13.744 150.492 12.952C149.652 12.136 148.38 11.728 146.676 11.728C145.548 11.728 144.444 11.92 143.364 12.304C142.284 12.664 141.372 13.156 140.628 13.78L139.188 11.188C140.172 10.396 141.348 9.796 142.716 9.388C144.108 8.956 145.56 8.74 147.072 8.74C149.688 8.74 151.704 9.376 153.12 10.648C154.536 11.92 155.244 13.864 155.244 16.48V28H151.968ZM145.704 28.216C144.288 28.216 143.04 27.976 141.96 27.496C140.904 27.016 140.088 26.356 139.512 25.516C138.936 24.652 138.648 23.68 138.648 22.6C138.648 21.568 138.888 20.632 139.368 19.792C139.872 18.952 140.676 18.28 141.78 17.776C142.908 17.272 144.42 17.02 146.316 17.02H152.364V19.504H146.46C144.732 19.504 143.568 19.792 142.968 20.368C142.368 20.944 142.068 21.64 142.068 22.456C142.068 23.392 142.44 24.148 143.184 24.724C143.928 25.276 144.96 25.552 146.28 25.552C147.576 25.552 148.704 25.264 149.664 24.688C150.648 24.112 151.356 23.272 151.788 22.168L152.472 24.544C152.016 25.672 151.212 26.572 150.06 27.244C148.908 27.892 147.456 28.216 145.704 28.216ZM181.423 28.216C179.839 28.216 178.387 27.856 177.067 27.136C175.771 26.392 174.727 25.3 173.935 23.86C173.167 22.42 172.783 20.62 172.783 18.46C172.783 16.3 173.155 14.5 173.899 13.06C174.667 11.62 175.699 10.54 176.995 9.82C178.315 9.1 179.791 8.74 181.423 8.74C183.295 8.74 184.951 9.148 186.391 9.964C187.831 10.78 188.971 11.92 189.811 13.384C190.651 14.824 191.071 16.516 191.071 18.46C191.071 20.404 190.651 22.108 189.811 23.572C188.971 25.036 187.831 26.176 186.391 26.992C184.951 27.808 183.295 28.216 181.423 28.216ZM171.307 34.984V8.92H174.619V14.068L174.403 18.496L174.763 22.924V34.984H171.307ZM181.135 25.192C182.359 25.192 183.451 24.916 184.411 24.364C185.395 23.812 186.163 23.032 186.715 22.024C187.291 20.992 187.579 19.804 187.579 18.46C187.579 17.092 187.291 15.916 186.715 14.932C186.163 13.924 185.395 13.144 184.411 12.592C183.451 12.04 182.359 11.764 181.135 11.764C179.935 11.764 178.843 12.04 177.859 12.592C176.899 13.144 176.131 13.924 175.555 14.932C175.003 15.916 174.727 17.092 174.727 18.46C174.727 19.804 175.003 20.992 175.555 22.024C176.131 23.032 176.899 23.812 177.859 24.364C178.843 24.916 179.935 25.192 181.135 25.192ZM207.515 28V23.968L207.335 23.212V16.336C207.335 14.872 206.903 13.744 206.039 12.952C205.199 12.136 203.927 11.728 202.223 11.728C201.095 11.728 199.991 11.92 198.911 12.304C197.831 12.664 196.919 13.156 196.175 13.78L194.735 11.188C195.719 10.396 196.895 9.796 198.263 9.388C199.655 8.956 201.107 8.74 202.619 8.74C205.235 8.74 207.251 9.376 208.667 10.648C210.083 11.92 210.791 13.864 210.791 16.48V28H207.515ZM201.251 28.216C199.835 28.216 198.587 27.976 197.507 27.496C196.451 27.016 195.635 26.356 195.059 25.516C194.483 24.652 194.195 23.68 194.195 22.6C194.195 21.568 194.435 20.632 194.915 19.792C195.419 18.952 196.223 18.28 197.327 17.776C198.455 17.272 199.967 17.02 201.863 17.02H207.911V19.504H202.007C200.279 19.504 199.115 19.792 198.515 20.368C197.915 20.944 197.615 21.64 197.615 22.456C197.615 23.392 197.987 24.148 198.731 24.724C199.475 25.276 200.507 25.552 201.827 25.552C203.123 25.552 204.251 25.264 205.211 24.688C206.195 24.112 206.903 23.272 207.335 22.168L208.019 24.544C207.563 25.672 206.759 26.572 205.607 27.244C204.455 27.892 203.003 28.216 201.251 28.216ZM225.538 35.2C223.786 35.2 222.082 34.948 220.426 34.444C218.794 33.964 217.462 33.268 216.43 32.356L218.086 29.692C218.974 30.46 220.066 31.06 221.362 31.492C222.658 31.948 224.014 32.176 225.43 32.176C227.686 32.176 229.342 31.648 230.398 30.592C231.454 29.536 231.982 27.928 231.982 25.768V21.736L232.342 17.956L232.162 14.14V8.92H235.438V25.408C235.438 28.768 234.598 31.24 232.918 32.824C231.238 34.408 228.778 35.2 225.538 35.2ZM225.106 27.208C223.258 27.208 221.602 26.824 220.138 26.056C218.698 25.264 217.546 24.172 216.682 22.78C215.842 21.388 215.422 19.78 215.422 17.956C215.422 16.108 215.842 14.5 216.682 13.132C217.546 11.74 218.698 10.66 220.138 9.892C221.602 9.124 223.258 8.74 225.106 8.74C226.738 8.74 228.226 9.076 229.57 9.748C230.914 10.396 231.982 11.404 232.774 12.772C233.59 14.14 233.998 15.868 233.998 17.956C233.998 20.02 233.59 21.736 232.774 23.104C231.982 24.472 230.914 25.504 229.57 26.2C228.226 26.872 226.738 27.208 225.106 27.208ZM225.502 24.184C226.774 24.184 227.902 23.92 228.886 23.392C229.87 22.864 230.638 22.132 231.19 21.196C231.766 20.26 232.054 19.18 232.054 17.956C232.054 16.732 231.766 15.652 231.19 14.716C230.638 13.78 229.87 13.06 228.886 12.556C227.902 12.028 226.774 11.764 225.502 11.764C224.23 11.764 223.09 12.028 222.082 12.556C221.098 13.06 220.318 13.78 219.742 14.716C219.19 15.652 218.914 16.732 218.914 17.956C218.914 19.18 219.19 20.26 219.742 21.196C220.318 22.132 221.098 22.864 222.082 23.392C223.09 23.92 224.23 24.184 225.502 24.184ZM250.538 28.216C248.498 28.216 246.698 27.796 245.138 26.956C243.602 26.116 242.402 24.964 241.538 23.5C240.698 22.036 240.278 20.356 240.278 18.46C240.278 16.564 240.686 14.884 241.502 13.42C242.342 11.956 243.482 10.816 244.922 10C246.386 9.16 248.03 8.74 249.854 8.74C251.702 8.74 253.334 9.148 254.75 9.964C256.166 10.78 257.27 11.932 258.062 13.42C258.878 14.884 259.286 16.6 259.286 18.568C259.286 18.712 259.274 18.88 259.25 19.072C259.25 19.264 259.238 19.444 259.214 19.612H242.978V17.128H257.414L256.01 17.992C256.034 16.768 255.782 15.676 255.254 14.716C254.726 13.756 253.994 13.012 253.058 12.484C252.146 11.932 251.078 11.656 249.854 11.656C248.654 11.656 247.586 11.932 246.65 12.484C245.714 13.012 244.982 13.768 244.454 14.752C243.926 15.712 243.662 16.816 243.662 18.064V18.64C243.662 19.912 243.95 21.052 244.526 22.06C245.126 23.044 245.954 23.812 247.01 24.364C248.066 24.916 249.278 25.192 250.646 25.192C251.774 25.192 252.794 25 253.706 24.616C254.642 24.232 255.458 23.656 256.154 22.888L258.062 25.12C257.198 26.128 256.118 26.896 254.822 27.424C253.55 27.952 252.122 28.216 250.538 28.216ZM281.637 28.216C279.789 28.216 278.133 27.808 276.669 26.992C275.229 26.176 274.089 25.036 273.249 23.572C272.409 22.108 271.989 20.404 271.989 18.46C271.989 16.516 272.409 14.824 273.249 13.384C274.089 11.92 275.229 10.78 276.669 9.964C278.133 9.148 279.789 8.74 281.637 8.74C283.293 8.74 284.769 9.1 286.065 9.82C287.361 10.54 288.381 11.62 289.125 13.06C289.893 14.5 290.277 16.3 290.277 18.46C290.277 20.62 289.881 22.42 289.089 23.86C288.321 25.3 287.289 26.392 285.993 27.136C284.697 27.856 283.245 28.216 281.637 28.216ZM281.925 25.192C283.125 25.192 284.205 24.916 285.165 24.364C286.149 23.812 286.917 23.032 287.469 22.024C288.045 20.992 288.333 19.804 288.333 18.46C288.333 17.092 288.045 15.916 287.469 14.932C286.917 13.924 286.149 13.144 285.165 12.592C284.205 12.04 283.125 11.764 281.925 11.764C280.701 11.764 279.609 12.04 278.649 12.592C277.689 13.144 276.921 13.924 276.345 14.932C275.769 15.916 275.481 17.092 275.481 18.46C275.481 19.804 275.769 20.992 276.345 22.024C276.921 23.032 277.689 23.812 278.649 24.364C279.609 24.916 280.701 25.192 281.925 25.192ZM288.297 34.984V22.924L288.657 18.496L288.441 14.068V8.92H291.753V34.984H288.297ZM306.32 28.216C304.688 28.216 303.248 27.916 302 27.316C300.776 26.716 299.816 25.804 299.12 24.58C298.448 23.332 298.112 21.772 298.112 19.9V8.92H301.568V19.504C301.568 21.376 302.012 22.78 302.9 23.716C303.812 24.652 305.084 25.12 306.716 25.12C307.916 25.12 308.96 24.88 309.848 24.4C310.736 23.896 311.42 23.176 311.9 22.24C312.38 21.28 312.62 20.128 312.62 18.784V8.92H316.076V28H312.8V22.852L313.34 24.22C312.716 25.492 311.78 26.476 310.532 27.172C309.284 27.868 307.88 28.216 306.32 28.216ZM331.151 28.216C329.111 28.216 327.311 27.796 325.751 26.956C324.215 26.116 323.015 24.964 322.151 23.5C321.311 22.036 320.891 20.356 320.891 18.46C320.891 16.564 321.299 14.884 322.115 13.42C322.955 11.956 324.095 10.816 325.535 10C326.999 9.16 328.643 8.74 330.467 8.74C332.315 8.74 333.947 9.148 335.363 9.964C336.779 10.78 337.883 11.932 338.675 13.42C339.491 14.884 339.899 16.6 339.899 18.568C339.899 18.712 339.887 18.88 339.863 19.072C339.863 19.264 339.851 19.444 339.827 19.612H323.591V17.128H338.027L336.623 17.992C336.647 16.768 336.395 15.676 335.867 14.716C335.339 13.756 334.607 13.012 333.671 12.484C332.759 11.932 331.691 11.656 330.467 11.656C329.267 11.656 328.199 11.932 327.263 12.484C326.327 13.012 325.595 13.768 325.067 14.752C324.539 15.712 324.275 16.816 324.275 18.064V18.64C324.275 19.912 324.563 21.052 325.139 22.06C325.739 23.044 326.567 23.812 327.623 24.364C328.679 24.916 329.891 25.192 331.259 25.192C332.387 25.192 333.407 25 334.319 24.616C335.255 24.232 336.071 23.656 336.767 22.888L338.675 25.12C337.811 26.128 336.731 26.896 335.435 27.424C334.163 27.952 332.735 28.216 331.151 28.216ZM359.37 28L351.018 8.92H354.618L362.034 26.2H360.306L367.866 8.92H371.25L362.898 28H359.37ZM382.12 28.216C380.2 28.216 378.496 27.796 377.008 26.956C375.52 26.116 374.344 24.964 373.48 23.5C372.616 22.012 372.184 20.332 372.184 18.46C372.184 16.564 372.616 14.884 373.48 13.42C374.344 11.956 375.52 10.816 377.008 10C378.496 9.16 380.2 8.74 382.12 8.74C384.016 8.74 385.708 9.16 387.196 10C388.708 10.816 389.884 11.956 390.724 13.42C391.588 14.86 392.02 16.54 392.02 18.46C392.02 20.356 391.588 22.036 390.724 23.5C389.884 24.964 388.708 26.116 387.196 26.956C385.708 27.796 384.016 28.216 382.12 28.216ZM382.12 25.192C383.344 25.192 384.436 24.916 385.396 24.364C386.38 23.812 387.148 23.032 387.7 22.024C388.252 20.992 388.528 19.804 388.528 18.46C388.528 17.092 388.252 15.916 387.7 14.932C387.148 13.924 386.38 13.144 385.396 12.592C384.436 12.04 383.344 11.764 382.12 11.764C380.896 11.764 379.804 12.04 378.844 12.592C377.884 13.144 377.116 13.924 376.54 14.932C375.964 15.916 375.676 17.092 375.676 18.46C375.676 19.804 375.964 20.992 376.54 22.024C377.116 23.032 377.884 23.812 378.844 24.364C379.804 24.916 380.896 25.192 382.12 25.192ZM404.827 28.216C403.195 28.216 401.755 27.916 400.507 27.316C399.283 26.716 398.323 25.804 397.627 24.58C396.955 23.332 396.619 21.772 396.619 19.9V8.92H400.075V19.504C400.075 21.376 400.519 22.78 401.407 23.716C402.319 24.652 403.591 25.12 405.223 25.12C406.423 25.12 407.467 24.88 408.355 24.4C409.243 23.896 409.927 23.176 410.407 22.24C410.887 21.28 411.127 20.128 411.127 18.784V8.92H414.583V28H411.307V22.852L411.847 24.22C411.223 25.492 410.287 26.476 409.039 27.172C407.791 27.868 406.387 28.216 404.827 28.216ZM426.635 28.216C425.051 28.216 423.539 28 422.099 27.568C420.683 27.136 419.567 26.608 418.751 25.984L420.191 23.248C421.007 23.8 422.015 24.268 423.215 24.652C424.415 25.036 425.639 25.228 426.887 25.228C428.495 25.228 429.647 25 430.343 24.544C431.063 24.088 431.423 23.452 431.423 22.636C431.423 22.036 431.207 21.568 430.775 21.232C430.343 20.896 429.767 20.644 429.047 20.476C428.351 20.308 427.571 20.164 426.707 20.044C425.843 19.9 424.979 19.732 424.115 19.54C423.251 19.324 422.459 19.036 421.739 18.676C421.019 18.292 420.443 17.776 420.011 17.128C419.579 16.456 419.363 15.568 419.363 14.464C419.363 13.312 419.687 12.304 420.335 11.44C420.983 10.576 421.895 9.916 423.071 9.46C424.271 8.98 425.687 8.74 427.319 8.74C428.567 8.74 429.827 8.896 431.099 9.208C432.395 9.496 433.451 9.916 434.267 10.468L432.791 13.204C431.927 12.628 431.027 12.232 430.091 12.016C429.155 11.8 428.219 11.692 427.283 11.692C425.771 11.692 424.643 11.944 423.899 12.448C423.155 12.928 422.783 13.552 422.783 14.32C422.783 14.968 422.999 15.472 423.431 15.832C423.887 16.168 424.463 16.432 425.159 16.624C425.879 16.816 426.671 16.984 427.535 17.128C428.399 17.248 429.263 17.416 430.127 17.632C430.991 17.824 431.771 18.1 432.467 18.46C433.187 18.82 433.763 19.324 434.195 19.972C434.651 20.62 434.879 21.484 434.879 22.564C434.879 23.716 434.543 24.712 433.871 25.552C433.199 26.392 432.251 27.052 431.027 27.532C429.803 27.988 428.339 28.216 426.635 28.216ZM456.75 28.216C454.902 28.216 453.246 27.808 451.782 26.992C450.342 26.176 449.202 25.036 448.362 23.572C447.522 22.108 447.102 20.404 447.102 18.46C447.102 16.516 447.522 14.824 448.362 13.384C449.202 11.92 450.342 10.78 451.782 9.964C453.246 9.148 454.902 8.74 456.75 8.74C458.358 8.74 459.81 9.1 461.106 9.82C462.402 10.54 463.434 11.62 464.202 13.06C464.994 14.5 465.39 16.3 465.39 18.46C465.39 20.62 465.006 22.42 464.238 23.86C463.494 25.3 462.474 26.392 461.178 27.136C459.882 27.856 458.406 28.216 456.75 28.216ZM457.038 25.192C458.238 25.192 459.318 24.916 460.278 24.364C461.262 23.812 462.03 23.032 462.582 22.024C463.158 20.992 463.446 19.804 463.446 18.46C463.446 17.092 463.158 15.916 462.582 14.932C462.03 13.924 461.262 13.144 460.278 12.592C459.318 12.04 458.238 11.764 457.038 11.764C455.814 11.764 454.722 12.04 453.762 12.592C452.802 13.144 452.034 13.924 451.458 14.932C450.882 15.916 450.594 17.092 450.594 18.46C450.594 19.804 450.882 20.992 451.458 22.024C452.034 23.032 452.802 23.812 453.762 24.364C454.722 24.916 455.814 25.192 457.038 25.192ZM463.554 28V22.852L463.77 18.424L463.41 13.996V1.288H466.866V28H463.554ZM481.901 28.216C479.861 28.216 478.061 27.796 476.501 26.956C474.965 26.116 473.765 24.964 472.901 23.5C472.061 22.036 471.641 20.356 471.641 18.46C471.641 16.564 472.049 14.884 472.865 13.42C473.705 11.956 474.845 10.816 476.285 10C477.749 9.16 479.393 8.74 481.217 8.74C483.065 8.74 484.697 9.148 486.113 9.964C487.529 10.78 488.633 11.932 489.425 13.42C490.241 14.884 490.649 16.6 490.649 18.568C490.649 18.712 490.637 18.88 490.613 19.072C490.613 19.264 490.601 19.444 490.577 19.612H474.341V17.128H488.777L487.373 17.992C487.397 16.768 487.145 15.676 486.617 14.716C486.089 13.756 485.357 13.012 484.421 12.484C483.509 11.932 482.441 11.656 481.217 11.656C480.017 11.656 478.949 11.932 478.013 12.484C477.077 13.012 476.345 13.768 475.817 14.752C475.289 15.712 475.025 16.816 475.025 18.064V18.64C475.025 19.912 475.313 21.052 475.889 22.06C476.489 23.044 477.317 23.812 478.373 24.364C479.429 24.916 480.641 25.192 482.009 25.192C483.137 25.192 484.157 25 485.069 24.616C486.005 24.232 486.821 23.656 487.517 22.888L489.425 25.12C488.561 26.128 487.481 26.896 486.185 27.424C484.913 27.952 483.485 28.216 481.901 28.216ZM519.316 8.74C520.852 8.74 522.208 9.04 523.384 9.64C524.56 10.24 525.472 11.152 526.12 12.376C526.792 13.6 527.128 15.148 527.128 17.02V28H523.672V17.416C523.672 15.568 523.24 14.176 522.376 13.24C521.512 12.304 520.3 11.836 518.74 11.836C517.588 11.836 516.58 12.076 515.716 12.556C514.852 13.036 514.18 13.744 513.7 14.68C513.244 15.616 513.016 16.78 513.016 18.172V28H509.56V17.416C509.56 15.568 509.128 14.176 508.264 13.24C507.424 12.304 506.212 11.836 504.628 11.836C503.5 11.836 502.504 12.076 501.64 12.556C500.776 13.036 500.104 13.744 499.624 14.68C499.144 15.616 498.904 16.78 498.904 18.172V28H495.448V8.92H498.76V13.996L498.22 12.7C498.82 11.452 499.744 10.48 500.992 9.784C502.24 9.088 503.692 8.74 505.348 8.74C507.172 8.74 508.744 9.196 510.064 10.108C511.384 10.996 512.248 12.352 512.656 14.176L511.252 13.6C511.828 12.136 512.836 10.96 514.276 10.072C515.716 9.184 517.396 8.74 519.316 8.74ZM545.331 28V23.968L545.151 23.212V16.336C545.151 14.872 544.719 13.744 543.855 12.952C543.015 12.136 541.743 11.728 540.039 11.728C538.911 11.728 537.807 11.92 536.727 12.304C535.647 12.664 534.735 13.156 533.991 13.78L532.551 11.188C533.535 10.396 534.711 9.796 536.079 9.388C537.471 8.956 538.923 8.74 540.435 8.74C543.051 8.74 545.067 9.376 546.483 10.648C547.899 11.92 548.607 13.864 548.607 16.48V28H545.331ZM539.067 28.216C537.651 28.216 536.403 27.976 535.323 27.496C534.267 27.016 533.451 26.356 532.875 25.516C532.299 24.652 532.011 23.68 532.011 22.6C532.011 21.568 532.251 20.632 532.731 19.792C533.235 18.952 534.039 18.28 535.143 17.776C536.271 17.272 537.783 17.02 539.679 17.02H545.727V19.504H539.823C538.095 19.504 536.931 19.792 536.331 20.368C535.731 20.944 535.431 21.64 535.431 22.456C535.431 23.392 535.803 24.148 536.547 24.724C537.291 25.276 538.323 25.552 539.643 25.552C540.939 25.552 542.067 25.264 543.027 24.688C544.011 24.112 544.719 23.272 545.151 22.168L545.835 24.544C545.379 25.672 544.575 26.572 543.423 27.244C542.271 27.892 540.819 28.216 539.067 28.216ZM565.191 8.74C566.751 8.74 568.119 9.04 569.295 9.64C570.495 10.24 571.431 11.152 572.103 12.376C572.775 13.6 573.111 15.148 573.111 17.02V28H569.655V17.416C569.655 15.568 569.199 14.176 568.287 13.24C567.399 12.304 566.139 11.836 564.507 11.836C563.283 11.836 562.215 12.076 561.303 12.556C560.391 13.036 559.683 13.744 559.179 14.68C558.699 15.616 558.459 16.78 558.459 18.172V28H555.003V8.92H558.315V14.068L557.775 12.7C558.399 11.452 559.359 10.48 560.655 9.784C561.951 9.088 563.463 8.74 565.191 8.74ZM587.39 28.216C585.542 28.216 583.886 27.808 582.422 26.992C580.982 26.176 579.842 25.036 579.002 23.572C578.162 22.108 577.742 20.404 577.742 18.46C577.742 16.516 578.162 14.824 579.002 13.384C579.842 11.92 580.982 10.78 582.422 9.964C583.886 9.148 585.542 8.74 587.39 8.74C588.998 8.74 590.45 9.1 591.746 9.82C593.042 10.54 594.074 11.62 594.842 13.06C595.634 14.5 596.03 16.3 596.03 18.46C596.03 20.62 595.646 22.42 594.878 23.86C594.134 25.3 593.114 26.392 591.818 27.136C590.522 27.856 589.046 28.216 587.39 28.216ZM587.678 25.192C588.878 25.192 589.958 24.916 590.918 24.364C591.902 23.812 592.67 23.032 593.222 22.024C593.798 20.992 594.086 19.804 594.086 18.46C594.086 17.092 593.798 15.916 593.222 14.932C592.67 13.924 591.902 13.144 590.918 12.592C589.958 12.04 588.878 11.764 587.678 11.764C586.454 11.764 585.362 12.04 584.402 12.592C583.442 13.144 582.674 13.924 582.098 14.932C581.522 15.916 581.234 17.092 581.234 18.46C581.234 19.804 581.522 20.992 582.098 22.024C582.674 23.032 583.442 23.812 584.402 24.364C585.362 24.916 586.454 25.192 587.678 25.192ZM594.194 28V22.852L594.41 18.424L594.05 13.996V1.288H597.506V28H594.194ZM612.542 28.216C610.502 28.216 608.702 27.796 607.142 26.956C605.606 26.116 604.406 24.964 603.542 23.5C602.702 22.036 602.282 20.356 602.282 18.46C602.282 16.564 602.69 14.884 603.506 13.42C604.346 11.956 605.486 10.816 606.926 10C608.39 9.16 610.034 8.74 611.858 8.74C613.706 8.74 615.338 9.148 616.754 9.964C618.17 10.78 619.274 11.932 620.066 13.42C620.882 14.884 621.29 16.6 621.29 18.568C621.29 18.712 621.278 18.88 621.254 19.072C621.254 19.264 621.242 19.444 621.218 19.612H604.982V17.128H619.418L618.014 17.992C618.038 16.768 617.786 15.676 617.258 14.716C616.73 13.756 615.998 13.012 615.062 12.484C614.15 11.932 613.082 11.656 611.858 11.656C610.658 11.656 609.59 11.932 608.654 12.484C607.718 13.012 606.986 13.768 606.458 14.752C605.93 15.712 605.666 16.816 605.666 18.064V18.64C605.666 19.912 605.954 21.052 606.53 22.06C607.13 23.044 607.958 23.812 609.014 24.364C610.07 24.916 611.282 25.192 612.65 25.192C613.778 25.192 614.798 25 615.71 24.616C616.646 24.232 617.462 23.656 618.158 22.888L620.066 25.12C619.202 26.128 618.122 26.896 616.826 27.424C615.554 27.952 614.126 28.216 612.542 28.216ZM624.077 28V25.768L636.317 10.576L637.001 11.764H624.293V8.92H639.773V11.188L627.533 26.344L626.741 25.156H640.061V28H624.077ZM664.542 8.74C666.102 8.74 667.47 9.04 668.646 9.64C669.846 10.24 670.782 11.152 671.454 12.376C672.126 13.6 672.462 15.148 672.462 17.02V28H669.006V17.416C669.006 15.568 668.55 14.176 667.638 13.24C666.75 12.304 665.49 11.836 663.858 11.836C662.634 11.836 661.566 12.076 660.654 12.556C659.742 13.036 659.034 13.744 658.53 14.68C658.05 15.616 657.81 16.78 657.81 18.172V28H654.354V8.92H657.666V14.068L657.126 12.7C657.75 11.452 658.71 10.48 660.006 9.784C661.302 9.088 662.814 8.74 664.542 8.74ZM678.066 12.52L677.85 2.8H680.874L680.622 12.52H678.066ZM694.913 28.216C692.873 28.216 691.073 27.796 689.513 26.956C687.977 26.116 686.777 24.964 685.913 23.5C685.073 22.036 684.653 20.356 684.653 18.46C684.653 16.564 685.061 14.884 685.877 13.42C686.717 11.956 687.857 10.816 689.297 10C690.761 9.16 692.405 8.74 694.229 8.74C696.077 8.74 697.709 9.148 699.125 9.964C700.541 10.78 701.645 11.932 702.437 13.42C703.253 14.884 703.661 16.6 703.661 18.568C703.661 18.712 703.649 18.88 703.625 19.072C703.625 19.264 703.613 19.444 703.589 19.612H687.353V17.128H701.789L700.385 17.992C700.409 16.768 700.157 15.676 699.629 14.716C699.101 13.756 698.369 13.012 697.433 12.484C696.521 11.932 695.453 11.656 694.229 11.656C693.029 11.656 691.961 11.932 691.025 12.484C690.089 13.012 689.357 13.768 688.829 14.752C688.301 15.712 688.037 16.816 688.037 18.064V18.64C688.037 19.912 688.325 21.052 688.901 22.06C689.501 23.044 690.329 23.812 691.385 24.364C692.441 24.916 693.653 25.192 695.021 25.192C696.149 25.192 697.169 25 698.081 24.616C699.017 24.232 699.833 23.656 700.529 22.888L702.437 25.12C701.573 26.128 700.493 26.896 699.197 27.424C697.925 27.952 696.497 28.216 694.913 28.216ZM705.16 28L713.368 17.344L713.332 19.108L705.52 8.92H709.372L715.348 16.768H713.872L719.848 8.92H723.628L715.708 19.18L715.744 17.344L724.024 28H720.1L713.8 19.648L715.204 19.864L709.012 28H705.16ZM727.796 28V8.92H731.252V28H727.796ZM729.524 5.248C728.852 5.248 728.288 5.032 727.832 4.6C727.4 4.168 727.184 3.64 727.184 3.016C727.184 2.368 727.4 1.828 727.832 1.396C728.288 0.963999 728.852 0.747999 729.524 0.747999C730.196 0.747999 730.748 0.963999 731.18 1.396C731.636 1.804 731.864 2.32 731.864 2.944C731.864 3.592 731.648 4.144 731.216 4.6C730.784 5.032 730.22 5.248 729.524 5.248ZM743.322 28.216C741.738 28.216 740.226 28 738.786 27.568C737.37 27.136 736.254 26.608 735.438 25.984L736.878 23.248C737.694 23.8 738.702 24.268 739.902 24.652C741.102 25.036 742.326 25.228 743.574 25.228C745.182 25.228 746.334 25 747.03 24.544C747.75 24.088 748.11 23.452 748.11 22.636C748.11 22.036 747.894 21.568 747.462 21.232C747.03 20.896 746.454 20.644 745.734 20.476C745.038 20.308 744.258 20.164 743.394 20.044C742.53 19.9 741.666 19.732 740.802 19.54C739.938 19.324 739.146 19.036 738.426 18.676C737.706 18.292 737.13 17.776 736.698 17.128C736.266 16.456 736.05 15.568 736.05 14.464C736.05 13.312 736.374 12.304 737.022 11.44C737.67 10.576 738.582 9.916 739.758 9.46C740.958 8.98 742.374 8.74 744.006 8.74C745.254 8.74 746.514 8.896 747.786 9.208C749.082 9.496 750.138 9.916 750.954 10.468L749.478 13.204C748.614 12.628 747.714 12.232 746.778 12.016C745.842 11.8 744.906 11.692 743.97 11.692C742.458 11.692 741.33 11.944 740.586 12.448C739.842 12.928 739.47 13.552 739.47 14.32C739.47 14.968 739.686 15.472 740.118 15.832C740.574 16.168 741.15 16.432 741.846 16.624C742.566 16.816 743.358 16.984 744.222 17.128C745.086 17.248 745.95 17.416 746.814 17.632C747.678 17.824 748.458 18.1 749.154 18.46C749.874 18.82 750.45 19.324 750.882 19.972C751.338 20.62 751.566 21.484 751.566 22.564C751.566 23.716 751.23 24.712 750.558 25.552C749.886 26.392 748.938 27.052 747.714 27.532C746.49 27.988 745.026 28.216 743.322 28.216ZM762.437 28.216C760.517 28.216 759.029 27.7 757.973 26.668C756.917 25.636 756.389 24.16 756.389 22.24V4.744H759.845V22.096C759.845 23.128 760.097 23.92 760.601 24.472C761.129 25.024 761.873 25.3 762.833 25.3C763.913 25.3 764.813 25 765.533 24.4L766.613 26.884C766.085 27.34 765.449 27.676 764.705 27.892C763.985 28.108 763.229 28.216 762.437 28.216ZM753.149 11.764V8.92H765.317V11.764H753.149ZM778.655 28.216C776.615 28.216 774.815 27.796 773.255 26.956C771.719 26.116 770.519 24.964 769.655 23.5C768.815 22.036 768.395 20.356 768.395 18.46C768.395 16.564 768.803 14.884 769.619 13.42C770.459 11.956 771.599 10.816 773.039 10C774.503 9.16 776.147 8.74 777.971 8.74C779.819 8.74 781.451 9.148 782.867 9.964C784.283 10.78 785.387 11.932 786.179 13.42C786.995 14.884 787.403 16.6 787.403 18.568C787.403 18.712 787.391 18.88 787.367 19.072C787.367 19.264 787.355 19.444 787.331 19.612H771.095V17.128H785.531L784.127 17.992C784.151 16.768 783.899 15.676 783.371 14.716C782.843 13.756 782.111 13.012 781.175 12.484C780.263 11.932 779.195 11.656 777.971 11.656C776.771 11.656 775.703 11.932 774.767 12.484C773.831 13.012 773.099 13.768 772.571 14.752C772.043 15.712 771.779 16.816 771.779 18.064V18.64C771.779 19.912 772.067 21.052 772.643 22.06C773.243 23.044 774.071 23.812 775.127 24.364C776.183 24.916 777.395 25.192 778.763 25.192C779.891 25.192 780.911 25 781.823 24.616C782.759 24.232 783.575 23.656 784.271 22.888L786.179 25.12C785.315 26.128 784.235 26.896 782.939 27.424C781.667 27.952 780.239 28.216 778.655 28.216ZM811.986 28.216C810.402 28.216 808.95 27.856 807.63 27.136C806.334 26.392 805.29 25.3 804.498 23.86C803.73 22.42 803.346 20.62 803.346 18.46C803.346 16.3 803.718 14.5 804.462 13.06C805.23 11.62 806.262 10.54 807.558 9.82C808.878 9.1 810.354 8.74 811.986 8.74C813.858 8.74 815.514 9.148 816.954 9.964C818.394 10.78 819.534 11.92 820.374 13.384C821.214 14.824 821.634 16.516 821.634 18.46C821.634 20.404 821.214 22.108 820.374 23.572C819.534 25.036 818.394 26.176 816.954 26.992C815.514 27.808 813.858 28.216 811.986 28.216ZM801.87 34.984V8.92H805.182V14.068L804.966 18.496L805.326 22.924V34.984H801.87ZM811.698 25.192C812.922 25.192 814.014 24.916 814.974 24.364C815.958 23.812 816.726 23.032 817.278 22.024C817.854 20.992 818.142 19.804 818.142 18.46C818.142 17.092 817.854 15.916 817.278 14.932C816.726 13.924 815.958 13.144 814.974 12.592C814.014 12.04 812.922 11.764 811.698 11.764C810.498 11.764 809.406 12.04 808.422 12.592C807.462 13.144 806.694 13.924 806.118 14.932C805.566 15.916 805.29 17.092 805.29 18.46C805.29 19.804 805.566 20.992 806.118 22.024C806.694 23.032 807.462 23.812 808.422 24.364C809.406 24.916 810.498 25.192 811.698 25.192ZM838.077 28V23.968L837.897 23.212V16.336C837.897 14.872 837.465 13.744 836.601 12.952C835.761 12.136 834.489 11.728 832.785 11.728C831.657 11.728 830.553 11.92 829.473 12.304C828.393 12.664 827.481 13.156 826.737 13.78L825.297 11.188C826.281 10.396 827.457 9.796 828.825 9.388C830.217 8.956 831.669 8.74 833.181 8.74C835.797 8.74 837.813 9.376 839.229 10.648C840.645 11.92 841.353 13.864 841.353 16.48V28H838.077ZM831.813 28.216C830.397 28.216 829.149 27.976 828.069 27.496C827.013 27.016 826.197 26.356 825.621 25.516C825.045 24.652 824.757 23.68 824.757 22.6C824.757 21.568 824.997 20.632 825.477 19.792C825.981 18.952 826.785 18.28 827.889 17.776C829.017 17.272 830.529 17.02 832.425 17.02H838.473V19.504H832.569C830.841 19.504 829.677 19.792 829.077 20.368C828.477 20.944 828.177 21.64 828.177 22.456C828.177 23.392 828.549 24.148 829.293 24.724C830.037 25.276 831.069 25.552 832.389 25.552C833.685 25.552 834.813 25.264 835.773 24.688C836.757 24.112 837.465 23.272 837.897 22.168L838.581 24.544C838.125 25.672 837.321 26.572 836.169 27.244C835.017 27.892 833.565 28.216 831.813 28.216ZM853.221 28.216C851.637 28.216 850.125 28 848.685 27.568C847.269 27.136 846.153 26.608 845.337 25.984L846.777 23.248C847.593 23.8 848.601 24.268 849.801 24.652C851.001 25.036 852.225 25.228 853.473 25.228C855.081 25.228 856.233 25 856.929 24.544C857.649 24.088 858.009 23.452 858.009 22.636C858.009 22.036 857.793 21.568 857.361 21.232C856.929 20.896 856.353 20.644 855.633 20.476C854.937 20.308 854.157 20.164 853.293 20.044C852.429 19.9 851.565 19.732 850.701 19.54C849.837 19.324 849.045 19.036 848.325 18.676C847.605 18.292 847.029 17.776 846.597 17.128C846.165 16.456 845.949 15.568 845.949 14.464C845.949 13.312 846.273 12.304 846.921 11.44C847.569 10.576 848.481 9.916 849.657 9.46C850.857 8.98 852.273 8.74 853.905 8.74C855.153 8.74 856.413 8.896 857.685 9.208C858.981 9.496 860.037 9.916 860.853 10.468L859.377 13.204C858.513 12.628 857.613 12.232 856.677 12.016C855.741 11.8 854.805 11.692 853.869 11.692C852.357 11.692 851.229 11.944 850.485 12.448C849.741 12.928 849.369 13.552 849.369 14.32C849.369 14.968 849.585 15.472 850.017 15.832C850.473 16.168 851.049 16.432 851.745 16.624C852.465 16.816 853.257 16.984 854.121 17.128C854.985 17.248 855.849 17.416 856.713 17.632C857.577 17.824 858.357 18.1 859.053 18.46C859.773 18.82 860.349 19.324 860.781 19.972C861.237 20.62 861.465 21.484 861.465 22.564C861.465 23.716 861.129 24.712 860.457 25.552C859.785 26.392 858.837 27.052 857.613 27.532C856.389 27.988 854.925 28.216 853.221 28.216ZM866.612 28.216C865.94 28.216 865.364 27.988 864.884 27.532C864.404 27.052 864.164 26.452 864.164 25.732C864.164 25.012 864.404 24.424 864.884 23.968C865.364 23.512 865.94 23.284 866.612 23.284C867.26 23.284 867.812 23.512 868.268 23.968C868.748 24.424 868.988 25.012 868.988 25.732C868.988 26.452 868.748 27.052 868.268 27.532C867.812 27.988 867.26 28.216 866.612 28.216Z" fill="#FF6060"/>
</svg>
