<svg width="380" height="24" viewBox="0 0 380 24" fill="none" xmlns="http://www.w3.org/2000/svg">
<path d="M9.29531 19.072C8.09531 19.072 6.98331 18.856 5.95931 18.424C4.93531 17.992 4.03931 17.392 3.27131 16.624C2.50331 15.84 1.90331 14.936 1.47131 13.912C1.05531 12.888 0.847313 11.784 0.847313 10.6C0.847313 9.416 1.06331 8.312 1.49531 7.288C1.92731 6.264 2.52731 5.368 3.29531 4.6C4.06331 3.816 4.95931 3.208 5.98331 2.776C7.02331 2.344 8.14331 2.128 9.34331 2.128C10.5433 2.128 11.6553 2.344 12.6793 2.776C13.7193 3.192 14.6153 3.784 15.3673 4.552C16.1353 5.32 16.7273 6.216 17.1433 7.24C17.5753 8.248 17.7913 9.352 17.7913 10.552C17.7913 11.752 17.5753 12.872 17.1433 13.912C16.7113 14.936 16.1033 15.84 15.3193 16.624C14.5513 17.392 13.6553 17.992 12.6313 18.424C11.6073 18.856 10.4953 19.072 9.29531 19.072ZM9.29531 17.992C10.3353 17.992 11.3033 17.8 12.1993 17.416C13.0953 17.032 13.8793 16.504 14.5513 15.832C15.2233 15.16 15.7433 14.376 16.1113 13.48C16.4793 12.568 16.6633 11.592 16.6633 10.552C16.6633 9.512 16.4793 8.544 16.1113 7.648C15.7433 6.752 15.2313 5.976 14.5753 5.32C13.9193 4.664 13.1433 4.152 12.2473 3.784C11.3673 3.4 10.3993 3.208 9.34331 3.208C8.28731 3.208 7.30331 3.4 6.39131 3.784C5.49531 4.152 4.71931 4.68 4.06331 5.368C3.40731 6.04 2.89531 6.824 2.52731 7.72C2.15931 8.6 1.97531 9.56 1.97531 10.6C1.97531 11.64 2.15931 12.608 2.52731 13.504C2.89531 14.4 3.40731 15.184 4.06331 15.856C4.71931 16.528 5.49531 17.056 6.39131 17.44C7.28731 17.808 8.25531 17.992 9.29531 17.992ZM9.55931 15.544C8.58331 15.544 7.71131 15.336 6.94331 14.92C6.17531 14.504 5.57531 13.928 5.14331 13.192C4.71131 12.44 4.49531 11.576 4.49531 10.6C4.49531 9.624 4.71131 8.768 5.14331 8.032C5.57531 7.28 6.17531 6.696 6.94331 6.28C7.71131 5.864 8.58331 5.656 9.55931 5.656C10.4073 5.656 11.1673 5.832 11.8393 6.184C12.5273 6.52 13.0633 6.992 13.4473 7.6L12.0793 8.584C11.7753 8.136 11.3993 7.808 10.9513 7.6C10.5193 7.392 10.0473 7.288 9.53531 7.288C8.91131 7.288 8.35931 7.432 7.87931 7.72C7.41531 7.992 7.03931 8.376 6.75131 8.872C6.46331 9.352 6.31931 9.928 6.31931 10.6C6.31931 11.272 6.46331 11.856 6.75131 12.352C7.03931 12.832 7.41531 13.216 7.87931 13.504C8.35931 13.776 8.91131 13.912 9.53531 13.912C10.0473 13.912 10.5193 13.808 10.9513 13.6C11.3993 13.392 11.7753 13.064 12.0793 12.616L13.4473 13.576C13.0633 14.184 12.5273 14.664 11.8393 15.016C11.1673 15.368 10.4073 15.544 9.55931 15.544ZM26.2708 19V17.368L33.1108 10.768C33.7188 10.192 34.1668 9.688 34.4548 9.256C34.7588 8.808 34.9588 8.4 35.0548 8.032C35.1668 7.648 35.2228 7.28 35.2228 6.928C35.2228 6.064 34.9188 5.384 34.3108 4.888C33.7028 4.392 32.8148 4.144 31.6468 4.144C30.7508 4.144 29.9428 4.296 29.2228 4.6C28.5028 4.888 27.8788 5.344 27.3508 5.968L25.7188 4.552C26.3588 3.736 27.2148 3.112 28.2868 2.68C29.3748 2.232 30.5668 2.008 31.8628 2.008C33.0308 2.008 34.0468 2.2 34.9108 2.584C35.7748 2.952 36.4388 3.488 36.9028 4.192C37.3828 4.896 37.6228 5.728 37.6228 6.688C37.6228 7.232 37.5508 7.768 37.4068 8.296C37.2628 8.824 36.9908 9.384 36.5908 9.976C36.1908 10.568 35.6148 11.232 34.8628 11.968L28.7668 17.848L28.1908 16.912H38.3428V19H26.2708ZM47.1566 19.192C45.8446 19.192 44.6686 18.856 43.6286 18.184C42.6046 17.512 41.7886 16.536 41.1806 15.256C40.5886 13.976 40.2926 12.424 40.2926 10.6C40.2926 8.776 40.5886 7.224 41.1806 5.944C41.7886 4.664 42.6046 3.688 43.6286 3.016C44.6686 2.344 45.8446 2.008 47.1566 2.008C48.4526 2.008 49.6206 2.344 50.6606 3.016C51.7006 3.688 52.5166 4.664 53.1086 5.944C53.7006 7.224 53.9966 8.776 53.9966 10.6C53.9966 12.424 53.7006 13.976 53.1086 15.256C52.5166 16.536 51.7006 17.512 50.6606 18.184C49.6206 18.856 48.4526 19.192 47.1566 19.192ZM47.1566 17.056C48.0366 17.056 48.8046 16.816 49.4606 16.336C50.1326 15.856 50.6526 15.136 51.0206 14.176C51.4046 13.216 51.5966 12.024 51.5966 10.6C51.5966 9.176 51.4046 7.984 51.0206 7.024C50.6526 6.064 50.1326 5.344 49.4606 4.864C48.8046 4.384 48.0366 4.144 47.1566 4.144C46.2766 4.144 45.5006 4.384 44.8286 4.864C44.1566 5.344 43.6286 6.064 43.2446 7.024C42.8766 7.984 42.6926 9.176 42.6926 10.6C42.6926 12.024 42.8766 13.216 43.2446 14.176C43.6286 15.136 44.1566 15.856 44.8286 16.336C45.5006 16.816 46.2766 17.056 47.1566 17.056ZM56.0364 19V17.368L62.8764 10.768C63.4844 10.192 63.9324 9.688 64.2204 9.256C64.5244 8.808 64.7244 8.4 64.8204 8.032C64.9324 7.648 64.9884 7.28 64.9884 6.928C64.9884 6.064 64.6844 5.384 64.0764 4.888C63.4684 4.392 62.5804 4.144 61.4124 4.144C60.5164 4.144 59.7084 4.296 58.9884 4.6C58.2684 4.888 57.6444 5.344 57.1164 5.968L55.4844 4.552C56.1244 3.736 56.9804 3.112 58.0524 2.68C59.1404 2.232 60.3324 2.008 61.6284 2.008C62.7964 2.008 63.8124 2.2 64.6764 2.584C65.5404 2.952 66.2044 3.488 66.6684 4.192C67.1484 4.896 67.3884 5.728 67.3884 6.688C67.3884 7.232 67.3164 7.768 67.1724 8.296C67.0284 8.824 66.7564 9.384 66.3564 9.976C65.9564 10.568 65.3804 11.232 64.6284 11.968L58.5324 17.848L57.9564 16.912H68.1084V19H56.0364ZM76.9223 19.192C75.6103 19.192 74.4343 18.856 73.3943 18.184C72.3703 17.512 71.5543 16.536 70.9463 15.256C70.3543 13.976 70.0583 12.424 70.0583 10.6C70.0583 8.776 70.3543 7.224 70.9463 5.944C71.5543 4.664 72.3703 3.688 73.3943 3.016C74.4343 2.344 75.6103 2.008 76.9223 2.008C78.2183 2.008 79.3863 2.344 80.4263 3.016C81.4663 3.688 82.2823 4.664 82.8743 5.944C83.4663 7.224 83.7623 8.776 83.7623 10.6C83.7623 12.424 83.4663 13.976 82.8743 15.256C82.2823 16.536 81.4663 17.512 80.4263 18.184C79.3863 18.856 78.2183 19.192 76.9223 19.192ZM76.9223 17.056C77.8023 17.056 78.5703 16.816 79.2263 16.336C79.8983 15.856 80.4183 15.136 80.7863 14.176C81.1703 13.216 81.3623 12.024 81.3623 10.6C81.3623 9.176 81.1703 7.984 80.7863 7.024C80.4183 6.064 79.8983 5.344 79.2263 4.864C78.5703 4.384 77.8023 4.144 76.9223 4.144C76.0423 4.144 75.2663 4.384 74.5943 4.864C73.9223 5.344 73.3943 6.064 73.0103 7.024C72.6423 7.984 72.4583 9.176 72.4583 10.6C72.4583 12.024 72.6423 13.216 73.0103 14.176C73.3943 15.136 73.9223 15.856 74.5943 16.336C75.2663 16.816 76.0423 17.056 76.9223 17.056ZM95.9914 14.944L95.8714 12.016L105.399 2.2H108.135L100.767 9.976L99.4234 11.464L95.9914 14.944ZM93.8794 19V2.2H96.2794V19H93.8794ZM105.783 19L98.8954 10.984L100.503 9.208L108.591 19H105.783ZM118.385 19V16.312L118.265 15.808V11.224C118.265 10.248 117.977 9.496 117.401 8.968C116.841 8.424 115.993 8.152 114.857 8.152C114.105 8.152 113.369 8.28 112.649 8.536C111.929 8.776 111.321 9.104 110.825 9.52L109.865 7.792C110.521 7.264 111.305 6.864 112.217 6.592C113.145 6.304 114.113 6.16 115.121 6.16C116.865 6.16 118.209 6.584 119.153 7.432C120.097 8.28 120.569 9.576 120.569 11.32V19H118.385ZM114.209 19.144C113.265 19.144 112.433 18.984 111.713 18.664C111.009 18.344 110.465 17.904 110.081 17.344C109.697 16.768 109.505 16.12 109.505 15.4C109.505 14.712 109.665 14.088 109.985 13.528C110.321 12.968 110.857 12.52 111.593 12.184C112.345 11.848 113.353 11.68 114.617 11.68H118.649V13.336H114.713C113.561 13.336 112.785 13.528 112.385 13.912C111.985 14.296 111.785 14.76 111.785 15.304C111.785 15.928 112.033 16.432 112.529 16.816C113.025 17.184 113.713 17.368 114.593 17.368C115.457 17.368 116.209 17.176 116.849 16.792C117.505 16.408 117.977 15.848 118.265 15.112L118.721 16.696C118.417 17.448 117.881 18.048 117.113 18.496C116.345 18.928 115.377 19.144 114.209 19.144ZM128.48 19.144C127.424 19.144 126.416 19 125.456 18.712C124.512 18.424 123.768 18.072 123.224 17.656L124.184 15.832C124.728 16.2 125.4 16.512 126.2 16.768C127 17.024 127.816 17.152 128.648 17.152C129.72 17.152 130.488 17 130.952 16.696C131.432 16.392 131.672 15.968 131.672 15.424C131.672 15.024 131.528 14.712 131.24 14.488C130.952 14.264 130.568 14.096 130.088 13.984C129.624 13.872 129.104 13.776 128.528 13.696C127.952 13.6 127.376 13.488 126.8 13.36C126.224 13.216 125.696 13.024 125.216 12.784C124.736 12.528 124.352 12.184 124.064 11.752C123.776 11.304 123.632 10.712 123.632 9.976C123.632 9.208 123.848 8.536 124.28 7.96C124.712 7.384 125.32 6.944 126.104 6.64C126.904 6.32 127.848 6.16 128.936 6.16C129.768 6.16 130.608 6.264 131.456 6.472C132.32 6.664 133.024 6.944 133.568 7.312L132.584 9.136C132.008 8.752 131.408 8.488 130.784 8.344C130.16 8.2 129.536 8.128 128.912 8.128C127.904 8.128 127.152 8.296 126.656 8.632C126.16 8.952 125.912 9.368 125.912 9.88C125.912 10.312 126.056 10.648 126.344 10.888C126.648 11.112 127.032 11.288 127.496 11.416C127.976 11.544 128.504 11.656 129.08 11.752C129.656 11.832 130.232 11.944 130.808 12.088C131.384 12.216 131.904 12.4 132.368 12.64C132.848 12.88 133.232 13.216 133.52 13.648C133.824 14.08 133.976 14.656 133.976 15.376C133.976 16.144 133.752 16.808 133.304 17.368C132.856 17.928 132.224 18.368 131.408 18.688C130.592 18.992 129.616 19.144 128.48 19.144ZM144.752 19V16.312L144.632 15.808V11.224C144.632 10.248 144.344 9.496 143.768 8.968C143.208 8.424 142.36 8.152 141.224 8.152C140.472 8.152 139.736 8.28 139.016 8.536C138.296 8.776 137.688 9.104 137.192 9.52L136.232 7.792C136.888 7.264 137.672 6.864 138.584 6.592C139.512 6.304 140.48 6.16 141.488 6.16C143.232 6.16 144.576 6.584 145.52 7.432C146.464 8.28 146.936 9.576 146.936 11.32V19H144.752ZM140.576 19.144C139.632 19.144 138.8 18.984 138.08 18.664C137.376 18.344 136.832 17.904 136.448 17.344C136.064 16.768 135.872 16.12 135.872 15.4C135.872 14.712 136.032 14.088 136.352 13.528C136.688 12.968 137.224 12.52 137.96 12.184C138.712 11.848 139.72 11.68 140.984 11.68H145.016V13.336H141.08C139.928 13.336 139.152 13.528 138.752 13.912C138.352 14.296 138.152 14.76 138.152 15.304C138.152 15.928 138.4 16.432 138.896 16.816C139.392 17.184 140.08 17.368 140.96 17.368C141.824 17.368 142.576 17.176 143.216 16.792C143.872 16.408 144.344 15.848 144.632 15.112L145.088 16.696C144.784 17.448 144.248 18.048 143.48 18.496C142.712 18.928 141.744 19.144 140.576 19.144ZM151.752 19.144C151.304 19.144 150.92 18.992 150.6 18.688C150.28 18.368 150.12 17.968 150.12 17.488C150.12 17.008 150.28 16.616 150.6 16.312C150.92 16.008 151.304 15.856 151.752 15.856C152.184 15.856 152.552 16.008 152.856 16.312C153.176 16.616 153.336 17.008 153.336 17.488C153.336 17.968 153.176 18.368 152.856 18.688C152.552 18.992 152.184 19.144 151.752 19.144ZM160.874 19L168.482 2.2H170.858L178.49 19H175.97L169.178 3.544H170.138L163.346 19H160.874ZM164.114 14.8L164.762 12.88H174.218L174.914 14.8H164.114ZM180.661 19V1.192H182.965V19H180.661ZM187.364 19V1.192H189.668V19H187.364ZM200.512 19V6.28H202.72V9.736L202.504 8.872C202.856 7.992 203.448 7.32 204.28 6.856C205.112 6.392 206.136 6.16 207.352 6.16V8.392C207.256 8.376 207.16 8.368 207.064 8.368C206.984 8.368 206.904 8.368 206.824 8.368C205.592 8.368 204.616 8.736 203.896 9.472C203.176 10.208 202.816 11.272 202.816 12.664V19H200.512ZM210.192 19V6.28H212.496V19H210.192ZM211.344 3.832C210.896 3.832 210.52 3.688 210.216 3.4C209.928 3.112 209.784 2.76 209.784 2.344C209.784 1.912 209.928 1.552 210.216 1.264C210.52 0.975999 210.896 0.831999 211.344 0.831999C211.792 0.831999 212.16 0.975999 212.448 1.264C212.752 1.536 212.904 1.88 212.904 2.296C212.904 2.728 212.76 3.096 212.472 3.4C212.184 3.688 211.808 3.832 211.344 3.832ZM222.463 23.8C221.295 23.8 220.159 23.632 219.055 23.296C217.967 22.976 217.079 22.512 216.391 21.904L217.495 20.128C218.087 20.64 218.815 21.04 219.679 21.328C220.543 21.632 221.447 21.784 222.391 21.784C223.895 21.784 224.999 21.432 225.703 20.728C226.407 20.024 226.759 18.952 226.759 17.512V14.824L226.999 12.304L226.879 9.76V6.28H229.063V17.272C229.063 19.512 228.503 21.16 227.383 22.216C226.263 23.272 224.623 23.8 222.463 23.8ZM222.175 18.472C220.943 18.472 219.839 18.216 218.863 17.704C217.903 17.176 217.135 16.448 216.559 15.52C215.999 14.592 215.719 13.52 215.719 12.304C215.719 11.072 215.999 10 216.559 9.088C217.135 8.16 217.903 7.44 218.863 6.928C219.839 6.416 220.943 6.16 222.175 6.16C223.263 6.16 224.255 6.384 225.151 6.832C226.047 7.264 226.759 7.936 227.287 8.848C227.831 9.76 228.103 10.912 228.103 12.304C228.103 13.68 227.831 14.824 227.287 15.736C226.759 16.648 226.047 17.336 225.151 17.8C224.255 18.248 223.263 18.472 222.175 18.472ZM222.439 16.456C223.287 16.456 224.039 16.28 224.695 15.928C225.351 15.576 225.863 15.088 226.231 14.464C226.615 13.84 226.807 13.12 226.807 12.304C226.807 11.488 226.615 10.768 226.231 10.144C225.863 9.52 225.351 9.04 224.695 8.704C224.039 8.352 223.287 8.176 222.439 8.176C221.591 8.176 220.831 8.352 220.159 8.704C219.503 9.04 218.983 9.52 218.599 10.144C218.231 10.768 218.047 11.488 218.047 12.304C218.047 13.12 218.231 13.84 218.599 14.464C218.983 15.088 219.503 15.576 220.159 15.928C220.831 16.28 221.591 16.456 222.439 16.456ZM240.257 6.16C241.297 6.16 242.209 6.36 242.993 6.76C243.793 7.16 244.417 7.768 244.865 8.584C245.313 9.4 245.537 10.432 245.537 11.68V19H243.233V11.944C243.233 10.712 242.929 9.784 242.321 9.16C241.729 8.536 240.889 8.224 239.801 8.224C238.985 8.224 238.273 8.384 237.665 8.704C237.057 9.024 236.585 9.496 236.249 10.12C235.929 10.744 235.769 11.52 235.769 12.448V19H233.465V1.192H235.769V9.712L235.313 8.8C235.729 7.968 236.369 7.32 237.233 6.856C238.097 6.392 239.105 6.16 240.257 6.16ZM254.169 19.144C252.889 19.144 251.897 18.8 251.193 18.112C250.489 17.424 250.137 16.44 250.137 15.16V3.496H252.441V15.064C252.441 15.752 252.609 16.28 252.945 16.648C253.297 17.016 253.793 17.2 254.433 17.2C255.153 17.2 255.753 17 256.233 16.6L256.953 18.256C256.601 18.56 256.177 18.784 255.681 18.928C255.201 19.072 254.697 19.144 254.169 19.144ZM247.977 8.176V6.28H256.089V8.176H247.977ZM263.387 19.144C262.331 19.144 261.323 19 260.363 18.712C259.419 18.424 258.675 18.072 258.131 17.656L259.091 15.832C259.635 16.2 260.307 16.512 261.107 16.768C261.907 17.024 262.723 17.152 263.555 17.152C264.627 17.152 265.395 17 265.859 16.696C266.339 16.392 266.579 15.968 266.579 15.424C266.579 15.024 266.435 14.712 266.147 14.488C265.859 14.264 265.475 14.096 264.995 13.984C264.531 13.872 264.011 13.776 263.435 13.696C262.859 13.6 262.283 13.488 261.707 13.36C261.131 13.216 260.603 13.024 260.123 12.784C259.643 12.528 259.259 12.184 258.971 11.752C258.683 11.304 258.539 10.712 258.539 9.976C258.539 9.208 258.755 8.536 259.187 7.96C259.619 7.384 260.227 6.944 261.011 6.64C261.811 6.32 262.755 6.16 263.843 6.16C264.675 6.16 265.515 6.264 266.363 6.472C267.227 6.664 267.931 6.944 268.475 7.312L267.491 9.136C266.915 8.752 266.315 8.488 265.691 8.344C265.067 8.2 264.443 8.128 263.819 8.128C262.811 8.128 262.059 8.296 261.563 8.632C261.067 8.952 260.819 9.368 260.819 9.88C260.819 10.312 260.963 10.648 261.251 10.888C261.555 11.112 261.939 11.288 262.403 11.416C262.883 11.544 263.411 11.656 263.987 11.752C264.563 11.832 265.139 11.944 265.715 12.088C266.291 12.216 266.811 12.4 267.275 12.64C267.755 12.88 268.139 13.216 268.427 13.648C268.731 14.08 268.883 14.656 268.883 15.376C268.883 16.144 268.659 16.808 268.211 17.368C267.763 17.928 267.131 18.368 266.315 18.688C265.499 18.992 264.523 19.144 263.387 19.144ZM278.207 19V6.28H280.415V9.736L280.199 8.872C280.551 7.992 281.143 7.32 281.975 6.856C282.807 6.392 283.831 6.16 285.047 6.16V8.392C284.951 8.376 284.855 8.368 284.759 8.368C284.679 8.368 284.599 8.368 284.519 8.368C283.287 8.368 282.311 8.736 281.591 9.472C280.871 10.208 280.511 11.272 280.511 12.664V19H278.207ZM293.434 19.144C292.074 19.144 290.874 18.864 289.834 18.304C288.81 17.744 288.01 16.976 287.434 16C286.874 15.024 286.594 13.904 286.594 12.64C286.594 11.376 286.866 10.256 287.41 9.28C287.97 8.304 288.73 7.544 289.69 7C290.666 6.44 291.762 6.16 292.978 6.16C294.21 6.16 295.298 6.432 296.242 6.976C297.186 7.52 297.922 8.288 298.45 9.28C298.994 10.256 299.266 11.4 299.266 12.712C299.266 12.808 299.258 12.92 299.242 13.048C299.242 13.176 299.234 13.296 299.218 13.408H288.394V11.752H298.018L297.082 12.328C297.098 11.512 296.93 10.784 296.578 10.144C296.226 9.504 295.738 9.008 295.114 8.656C294.506 8.288 293.794 8.104 292.978 8.104C292.178 8.104 291.466 8.288 290.842 8.656C290.218 9.008 289.73 9.512 289.378 10.168C289.026 10.808 288.85 11.544 288.85 12.376V12.76C288.85 13.608 289.042 14.368 289.426 15.04C289.826 15.696 290.378 16.208 291.082 16.576C291.786 16.944 292.594 17.128 293.506 17.128C294.258 17.128 294.938 17 295.546 16.744C296.17 16.488 296.714 16.104 297.178 15.592L298.45 17.08C297.874 17.752 297.154 18.264 296.29 18.616C295.442 18.968 294.49 19.144 293.434 19.144ZM306.113 19.144C305.057 19.144 304.049 19 303.089 18.712C302.145 18.424 301.401 18.072 300.857 17.656L301.817 15.832C302.361 16.2 303.033 16.512 303.833 16.768C304.633 17.024 305.449 17.152 306.281 17.152C307.353 17.152 308.121 17 308.585 16.696C309.065 16.392 309.305 15.968 309.305 15.424C309.305 15.024 309.161 14.712 308.873 14.488C308.585 14.264 308.201 14.096 307.721 13.984C307.257 13.872 306.737 13.776 306.161 13.696C305.585 13.6 305.009 13.488 304.433 13.36C303.857 13.216 303.329 13.024 302.849 12.784C302.369 12.528 301.985 12.184 301.697 11.752C301.409 11.304 301.265 10.712 301.265 9.976C301.265 9.208 301.481 8.536 301.913 7.96C302.345 7.384 302.953 6.944 303.737 6.64C304.537 6.32 305.481 6.16 306.569 6.16C307.401 6.16 308.241 6.264 309.089 6.472C309.953 6.664 310.657 6.944 311.201 7.312L310.217 9.136C309.641 8.752 309.041 8.488 308.417 8.344C307.793 8.2 307.169 8.128 306.545 8.128C305.537 8.128 304.785 8.296 304.289 8.632C303.793 8.952 303.545 9.368 303.545 9.88C303.545 10.312 303.689 10.648 303.977 10.888C304.281 11.112 304.665 11.288 305.129 11.416C305.609 11.544 306.137 11.656 306.713 11.752C307.289 11.832 307.865 11.944 308.441 12.088C309.017 12.216 309.537 12.4 310.001 12.64C310.481 12.88 310.865 13.216 311.153 13.648C311.457 14.08 311.609 14.656 311.609 15.376C311.609 16.144 311.385 16.808 310.937 17.368C310.489 17.928 309.857 18.368 309.041 18.688C308.225 18.992 307.249 19.144 306.113 19.144ZM320.153 19.144C318.793 19.144 317.593 18.864 316.553 18.304C315.529 17.744 314.729 16.976 314.153 16C313.593 15.024 313.313 13.904 313.313 12.64C313.313 11.376 313.585 10.256 314.129 9.28C314.689 8.304 315.449 7.544 316.409 7C317.385 6.44 318.481 6.16 319.697 6.16C320.929 6.16 322.017 6.432 322.961 6.976C323.905 7.52 324.641 8.288 325.169 9.28C325.713 10.256 325.985 11.4 325.985 12.712C325.985 12.808 325.977 12.92 325.961 13.048C325.961 13.176 325.953 13.296 325.937 13.408H315.113V11.752H324.737L323.801 12.328C323.817 11.512 323.649 10.784 323.297 10.144C322.945 9.504 322.457 9.008 321.833 8.656C321.225 8.288 320.513 8.104 319.697 8.104C318.897 8.104 318.185 8.288 317.561 8.656C316.937 9.008 316.449 9.512 316.097 10.168C315.745 10.808 315.569 11.544 315.569 12.376V12.76C315.569 13.608 315.761 14.368 316.145 15.04C316.545 15.696 317.097 16.208 317.801 16.576C318.505 16.944 319.313 17.128 320.225 17.128C320.977 17.128 321.657 17 322.265 16.744C322.889 16.488 323.433 16.104 323.897 15.592L325.169 17.08C324.593 17.752 323.873 18.264 323.009 18.616C322.161 18.968 321.209 19.144 320.153 19.144ZM329.184 19V6.28H331.392V9.736L331.176 8.872C331.528 7.992 332.12 7.32 332.952 6.856C333.784 6.392 334.808 6.16 336.024 6.16V8.392C335.928 8.376 335.832 8.368 335.736 8.368C335.656 8.368 335.576 8.368 335.496 8.368C334.264 8.368 333.288 8.736 332.568 9.472C331.848 10.208 331.488 11.272 331.488 12.664V19H329.184ZM342.715 19L337.147 6.28H339.547L344.491 17.8H343.339L348.379 6.28H350.635L345.067 19H342.715ZM358.098 19.144C356.738 19.144 355.538 18.864 354.498 18.304C353.474 17.744 352.674 16.976 352.098 16C351.538 15.024 351.258 13.904 351.258 12.64C351.258 11.376 351.53 10.256 352.074 9.28C352.634 8.304 353.394 7.544 354.354 7C355.33 6.44 356.426 6.16 357.642 6.16C358.874 6.16 359.962 6.432 360.906 6.976C361.85 7.52 362.586 8.288 363.114 9.28C363.658 10.256 363.93 11.4 363.93 12.712C363.93 12.808 363.922 12.92 363.906 13.048C363.906 13.176 363.898 13.296 363.882 13.408H353.058V11.752H362.682L361.746 12.328C361.762 11.512 361.594 10.784 361.242 10.144C360.89 9.504 360.402 9.008 359.778 8.656C359.17 8.288 358.458 8.104 357.642 8.104C356.842 8.104 356.13 8.288 355.506 8.656C354.882 9.008 354.394 9.512 354.042 10.168C353.69 10.808 353.514 11.544 353.514 12.376V12.76C353.514 13.608 353.706 14.368 354.09 15.04C354.49 15.696 355.042 16.208 355.746 16.576C356.45 16.944 357.258 17.128 358.17 17.128C358.922 17.128 359.602 17 360.21 16.744C360.834 16.488 361.378 16.104 361.842 15.592L363.114 17.08C362.538 17.752 361.818 18.264 360.954 18.616C360.106 18.968 359.154 19.144 358.098 19.144ZM372.385 19.144C371.153 19.144 370.049 18.872 369.073 18.328C368.113 17.784 367.353 17.024 366.793 16.048C366.233 15.072 365.953 13.936 365.953 12.64C365.953 11.344 366.233 10.216 366.793 9.256C367.353 8.28 368.113 7.52 369.073 6.976C370.049 6.432 371.153 6.16 372.385 6.16C373.457 6.16 374.425 6.4 375.289 6.88C376.153 7.36 376.841 8.08 377.353 9.04C377.881 10 378.145 11.2 378.145 12.64C378.145 14.08 377.889 15.28 377.377 16.24C376.881 17.2 376.201 17.928 375.337 18.424C374.473 18.904 373.489 19.144 372.385 19.144ZM372.577 17.128C373.377 17.128 374.097 16.944 374.737 16.576C375.393 16.208 375.905 15.688 376.273 15.016C376.657 14.328 376.849 13.536 376.849 12.64C376.849 11.728 376.657 10.944 376.273 10.288C375.905 9.616 375.393 9.096 374.737 8.728C374.097 8.36 373.377 8.176 372.577 8.176C371.761 8.176 371.033 8.36 370.393 8.728C369.753 9.096 369.241 9.616 368.857 10.288C368.473 10.944 368.281 11.728 368.281 12.64C368.281 13.536 368.473 14.328 368.857 15.016C369.241 15.688 369.753 16.208 370.393 16.576C371.033 16.944 371.761 17.128 372.577 17.128ZM376.921 19V15.568L377.065 12.616L376.825 9.664V1.192H379.129V19H376.921Z" fill="white"/>
</svg>
